General
Complete name                    : Vacancy 2007 BRRip 720P (English+Hindi)
Format                           : Matroska
File size                        : 1.43 GiB
Duration                         : 1h 25mn
Overall bit rate                 : 2 410 Kbps

Video
ID                               : 1
Format                           : AVC
Format/Info                      : Advanced Video Codec
Format profile                   : High@L4.1
Format settings, CABAC           : Yes
Format settings, ReFrames        : 4 frames
Muxing mode                      : Header stripping
Codec ID                         : V_MPEG4/ISO/AVC
Duration                         : 1h 25mn
Bit rate                         : 2 000 Kbps
Width                            : 1 280 pixels
Height                           : 534 pixels
Display aspect ratio             : 2.35:1
Frame rate                       : 23.976 fps
Color space                      : YUV
Chroma subsampling               : 4:2:0
Bit depth                        : 8 bits
Scan type                        : Progressive
Bits/(Pixel*Frame)               : 0.122
Stream size                      : 1.16 GiB (81%)
Language                         : English

Audio #1
ID                               : 2
Format                           : AC-3
Format/Info                      : Audio Coding 3
Mode extension                   : CM (complete main)
Muxing mode                      : Header stripping
Codec ID                         : A_AC3
Duration                         : 1h 25mn
Bit rate mode                    : Constant
Bit rate                         : 256 Kbps
Channel(s)                       : 6 channels
Channel positions                : Front: L C R, Side: L R, LFE
Sampling rate                    : 48.0 KHz
Bit depth                        : 16 bits
Compression mode                 : Lossy
Stream size                      : 156 MiB (11%)
Title                            : 5.1 - nsh168810
Language                         : English

Audio #2
ID                               : 3
Format                           : AC-3
Format/Info                      : Audio Coding 3
Mode extension                   : CM (complete main)
Muxing mode                      : Header stripping
Codec ID                         : A_AC3
Duration                         : 1h 25mn
Bit rate mode                    : Constant
Bit rate                         : 160 Kbps
Channel(s)                       : 2 channels
Channel positions                : Front: L R
Sampling rate                    : 48.0 KHz
Bit depth                        : 16 bits
Compression mode                 : Lossy
Delay relative to video          : 250ms
Stream size                      : 97.4 MiB (7%)
Title                            : nsh168810
Language                         : Hindi



 
http://img834.imageshack.us/img834/9259/samplevacancy2007brrip7.jpg 
http://img35.imageshack.us/img35/9259/samplevacancy2007brrip7.jpg 
http://img684.imageshack.us/img684/4457/vacancy2007brrip720peng.jpg 
http://img828.imageshack.us/img828/4457/vacancy2007brrip720peng.jpg 
http://img850.imageshack.us/img850/4457/vacancy2007brrip720peng.jpg
